<?xml version="1.0" encoding="UTF-8"?>
<!DOCTYPE svg PUBLIC "-//W3C//DTD SVG 1.1//EN" "http://www.w3.org/Graphics/SVG/1.1/DTD/svg11.dtd">
<!-- Creator: CorelDRAW 2017 -->
<svg xmlns="http://www.w3.org/2000/svg" xml:space="preserve" width="76.1309mm" height="26.2711mm" version="1.1" style="shape-rendering:geometricPrecision; text-rendering:geometricPrecision; image-rendering:optimizeQuality; fill-rule:evenodd; clip-rule:evenodd"
viewBox="0 0 1113 384"
 xmlns:xlink="http://www.w3.org/1999/xlink">
 <defs>
  <style type="text/css">
   <![CDATA[
    .str0 {stroke:#393185;stroke-width:2.92437}
    .fil1 {fill:#393185}
    .fil2 {fill:#F9F9F9}
    .fil3 {fill:#FAFAFA}
    .fil0 {fill:#393185;fill-rule:nonzero}
   ]]>
  </style>
 </defs>
 <g id="Слой_x0020_1">
  <metadata id="CorelCorpID_0Corel-Layer"/>
  <path class="fil0" d="M0 56l0 56 27 0c12,0 23,-3 23,-16 0,-7 -4,-12 -10,-14 6,-2 8,-6 8,-12 0,-10 -7,-14 -20,-14l-28 0zm32 38c0,3 -2,5 -5,5l-8 0 0 -9 8 0c4,0 5,2 5,5zm-2 -20c0,2 -2,4 -5,4l-7 0 0 -8 7 0c3,0 5,2 5,4zm24 10c0,16 10,29 31,29 20,0 31,-13 31,-29 0,-16 -10,-29 -31,-29 -20,0 -31,13 -31,29zm42 0c0,8 -4,13 -11,13 -7,0 -11,-5 -11,-13 0,-8 4,-13 11,-13 7,0 11,5 11,13zm69 13c0,-8 -4,-12 -11,-14 6,-2 9,-7 9,-12 0,-11 -9,-16 -24,-16 -5,0 -12,1 -19,4l0 17c5,-3 13,-4 18,-4 5,0 7,1 7,4 0,2 -1,3 -4,3l-12 0 0 14 13 0c3,0 5,1 5,3 0,3 -4,4 -8,4 -5,0 -13,-1 -20,-4l0 17c9,3 16,4 22,4 12,0 24,-4 24,-17zm6 -41l0 56 19 0 0 -15 6 0c14,0 25,-5 25,-21 0,-16 -11,-21 -25,-21l-25 0zm31 21c0,4 -3,5 -7,5l-6 0 0 -11 6 0c4,0 7,2 7,6zm33 36l2 -7 19 0 2 7 19 0 -21 -56 -20 0 -21 56 19 0zm11 -33c1,-2 1,-4 2,-7 0,3 1,5 2,7l4 12 -11 0 4 -12zm31 5c0,21 15,29 31,29 6,0 12,-1 17,-3l0 -17c-3,3 -8,4 -14,4 -7,0 -15,-4 -15,-13 0,-10 7,-14 15,-14 5,0 10,2 13,4l0 -17c-5,-2 -11,-3 -17,-3 -15,0 -31,9 -31,30zm51 -29l0 16 15 0 0 40 19 0 0 -40 15 0 0 -16 -49 0zm-320 139c0,17 8,27 18,35 -12,7 -24,21 -24,39 0,25 19,49 73,49 52,0 74,-24 74,-50 0,-21 -11,-33 -26,-41 12,-8 20,-17 20,-34 0,-22 -21,-47 -67,-47 -48,0 -68,25 -68,49zm70 57c9,3 16,6 16,14 0,6 -6,11 -17,11 -15,0 -21,-8 -21,-16 0,-5 1,-10 5,-15 6,2 11,4 17,5zm14 -54c0,4 -1,10 -4,15 -3,-1 -7,-2 -11,-3 -9,-3 -17,-6 -17,-14 0,-5 5,-10 15,-10 12,0 17,5 17,12zm151 11l0 -39 -41 0 0 39 -40 0 0 41 40 0 0 40 41 0 0 -40 40 0 0 -41 -40 0z"/>
  <rect class="fil1 str0" x="401" y="53" width="32" height="311" rx="7" ry="7"/>
  <path class="fil1" d="M509 157c4,3 2,14 2,20l0 90c0,22 4,17 51,17 44,0 51,5 51,-16l0 -90c0,-6 -2,-17 2,-20 6,1 5,11 5,17 0,16 -2,60 2,69 6,12 23,12 30,2 6,-9 4,-30 4,-43 0,-28 4,-63 -13,-80 -12,-12 -17,-12 -35,-12l-94 0c-20,0 -24,0 -36,11 -18,17 -13,55 -13,81 0,12 -2,34 4,43 7,11 24,11 30,-1 4,-8 3,-34 3,-45 0,-8 0,-16 0,-24 0,-6 -1,-17 5,-18z"/>
  <path class="fil1" d="M751 179c2,1 3,-1 4,7 1,9 1,23 1,32 0,14 -3,30 7,37 5,3 12,2 17,-1 5,-3 6,-7 7,-16 0,-15 0,-29 0,-44 0,-15 1,-26 -6,-38 -5,-9 -13,-16 -27,-17l-88 0c-1,9 0,68 0,83 0,67 -4,60 23,60 67,0 61,5 61,-22 0,-14 0,-28 0,-42 0,-7 -2,-37 2,-40z"/>
  <path class="fil1" d="M555 1c-25,4 -45,27 -41,56 4,24 27,45 56,41 24,-4 45,-27 41,-56 -4,-24 -27,-45 -55,-41z"/>
  <path class="fil1" d="M703 50c-21,2 -39,20 -36,44 2,21 21,38 45,35 21,-2 38,-21 35,-44 -2,-20 -21,-38 -44,-35z"/>
  <path class="fil2" d="M582 364c10,4 14,-4 10,-9 -3,-4 -14,-3 -10,9z"/>
  <path class="fil3" d="M512 328c-9,3 -3,15 4,12 9,-4 2,-14 -4,-12z"/>
  <path class="fil0" d="M641 316l0 17c6,-5 12,-7 18,-7 3,0 5,1 5,3 0,3 -4,5 -9,8 -7,5 -15,9 -16,21l0 7 44 0 0 -15 -20 0c2,-2 6,-4 10,-7 5,-4 10,-8 10,-16 0,-13 -10,-18 -22,-18 -7,0 -15,2 -21,6zm49 24l0 13 31 0 0 -13 -31 0zm56 -7c2,-7 7,-9 13,-9 4,0 9,1 13,4l0 -14c-5,-2 -11,-4 -17,-4 -15,0 -28,8 -28,28 0,18 8,29 27,29 12,0 23,-6 23,-19 0,-12 -9,-18 -19,-18 -5,0 -9,1 -13,3zm0 12c2,-1 5,-2 7,-2 4,0 7,1 7,5 0,3 -3,5 -6,5 -4,0 -7,-2 -8,-8zm65 21l13 -16 0 16 16 0 0 -39 -13 0 -13 16 0 -16 -16 0 0 39 13 0zm52 0l0 -25 14 0 0 -14 -31 0 0 39 17 0zm33 -34l0 -5 -15 0 0 56 17 0 0 -20c2,2 6,4 11,4 12,0 18,-10 18,-21 0,-11 -5,-21 -18,-21 -6,0 -10,3 -13,6zm13 15c0,3 -2,7 -6,7 -2,0 -4,-1 -5,-3l0 -9c1,-1 3,-3 5,-3 4,0 6,4 6,7zm21 0c0,14 10,21 22,21 12,0 22,-7 22,-21 0,-14 -10,-21 -22,-21 -12,0 -22,7 -22,21zm28 0c0,4 -1,7 -6,7 -4,0 -6,-3 -6,-7 0,-4 1,-7 6,-7 4,0 6,3 6,7zm39 19l0 -13 2 0 7 13 18 0 -12 -20 12 -19 -18 0 -7 12 -2 0 0 -12 -17 0 0 39 17 0zm27 -19c0,14 10,21 22,21 12,0 22,-7 22,-21 0,-14 -10,-21 -22,-21 -12,0 -22,7 -22,21zm28 0c0,4 -1,7 -6,7 -4,0 -6,-3 -6,-7 0,-4 1,-7 6,-7 4,0 6,3 6,7zm47 19c12,0 15,-6 15,-10 0,-5 -2,-8 -7,-9 4,-2 6,-5 6,-9 0,-4 -2,-10 -14,-10l-25 0 0 39 26 0zm-10 -15l5 0c2,0 3,1 3,3 0,2 -1,3 -3,3l-5 0 0 -5zm0 -14l4 0c2,0 3,1 3,3 0,2 -1,3 -3,3l-4 0 0 -5z"/>
 </g>
</svg>
