<?xml version="1.0" encoding="UTF-8"?>
<!DOCTYPE svg PUBLIC "-//W3C//DTD SVG 1.1//EN" "http://www.w3.org/Graphics/SVG/1.1/DTD/svg11.dtd">
<!-- Creator: CorelDRAW 2017 -->
<svg xmlns="http://www.w3.org/2000/svg" xml:space="preserve" width="202.553mm" height="78.7824mm" version="1.1" style="shape-rendering:geometricPrecision; text-rendering:geometricPrecision; image-rendering:optimizeQuality; fill-rule:evenodd; clip-rule:evenodd"
viewBox="0 0 20139 7833"
 xmlns:xlink="http://www.w3.org/1999/xlink">
 <defs>
  <style type="text/css">
   <![CDATA[
    .str1 {stroke:#FEFEFE;stroke-width:149.136}
    .str0 {stroke:#2B2A29;stroke-width:19.8848}
    .fil1 {fill:none}
    .fil4 {fill:#D9DADA}
    .fil3 {fill:#B2B3B3}
    .fil0 {fill:#393185}
    .fil2 {fill:#FEFEFE;fill-rule:nonzero}
    .fil5 {fill:#393185;fill-rule:nonzero}
   ]]>
  </style>
 </defs>
 <g id="Слой_x0020_1">
  <metadata id="CorelCorpID_0Corel-Layer"/>
  <rect class="fil0 str0" x="10" y="10" width="20119" height="5282" rx="842" ry="842"/>
  <rect class="fil1 str1" x="683" y="383" width="18898" height="4535" rx="791" ry="723"/>
  <polygon class="fil2" points="3653,1956 3209,2649 2768,1956 2304,1956 2304,3541 2813,3541 2813,2814 3074,3219 3347,3219 3608,2816 3608,3541 4117,3541 4117,1956 "/>
  <path id="1" class="fil2" d="M4291 2748c0,455 288,829 858,829 570,0 858,-374 858,-829 0,-455 -288,-829 -858,-829 -570,0 -858,374 -858,829zm1179 0c0,217 -118,355 -321,355 -204,0 -321,-138 -321,-355 0,-217 118,-355 321,-355 204,0 321,138 321,355z"/>
  <polygon id="2" class="fil2" points="7135,1956 7135,2520 6705,2520 6705,1956 6182,1956 6182,3541 6705,3541 6705,2977 7135,2977 7135,3541 7655,3541 7655,1956 "/>
  <path id="3" class="fil2" d="M7830 2748c0,455 288,829 858,829 570,0 858,-374 858,-829 0,-455 -288,-829 -858,-829 -570,0 -858,374 -858,829zm1179 0c0,217 -118,355 -321,355 -204,0 -321,-138 -321,-355 0,-217 118,-355 321,-355 204,0 321,138 321,355z"/>
  <polygon id="4" class="fil2" points="10241,3541 10241,2413 10684,2413 10684,3541 11205,3541 11205,1956 9720,1956 9720,3541 "/>
  <path id="5" class="fil2" d="M11379 2748c0,455 288,829 858,829 570,0 858,-374 858,-829 0,-455 -288,-829 -858,-829 -570,0 -858,374 -858,829zm1179 0c0,217 -118,355 -321,355 -204,0 -321,-138 -321,-355 0,-217 118,-355 321,-355 204,0 321,138 321,355z"/>
  <path id="6" class="fil2" d="M13498 1956c-27,414 -11,1016 -217,1114 -45,27 -102,32 -158,14l0 453c75,23 154,34 238,34 480,0 573,-586 616,-1157l220 0 0 1127 523 0 0 -1585 -1220 0z"/>
  <path id="7" class="fil2" d="M16446 3541l0 -1585 -441 0 -537 745c11,-95 14,-186 14,-272l0 -473 -523 0 0 1585 441 0 537 -743c-11,95 -14,183 -14,267l0 475 523 0z"/>
  <path id="8" class="fil2" d="M17152 3541l326 -469 88 0 0 469 521 0 0 -1585 -736 0c-346,0 -675,143 -675,564 0,229 113,376 290,462l-403 559 589 0zm52 -1010c0,-88 59,-149 177,-149l186 0 0 299 -186 0c-118,0 -177,-61 -177,-149z"/>
  <rect class="fil3" transform="matrix(0.990571 -0.136997 0.136997 0.990571 4762.93 5543.86)" width="8965" height="2362" rx="400" ry="400"/>
  <rect class="fil4" transform="matrix(0.88247 -0.122046 0.122046 0.88247 5265.16 5604.52)" width="8965" height="2362" rx="400" ry="400"/>
  <polygon class="fil5" points="7177,6993 7122,6580 7209,6568 7511,6948 7931,6892 7494,6357 7768,5736 7349,5792 7173,6233 7077,6246 7021,5837 6640,5888 6796,7045 "/>
  <path id="1" class="fil5" d="M7842 5722l156 1156 382 -51 -41 -302 124 -17c294,-40 505,-172 461,-496 -44,-326 -282,-397 -576,-358l-506 68zm704 341c11,79 -41,120 -129,132l-121 16 -30 -226 121 -16c87,-12 148,14 159,95z"/>
  <path id="2" class="fil5" d="M9645 6652c266,-36 487,-157 443,-480 -44,-326 -289,-382 -554,-346l-124 17 -45 -330 -382 51 156 1156 506 -68zm-193 -496l121 -16c68,-9 129,11 139,82 10,71 -44,107 -112,116l-121 16 -27 -198zm1145 367l-156 -1157 -382 52 156 1156 382 -51z"/>
  <polygon id="3" class="fil5" points="11600,5205 11345,5755 10954,5293 10615,5338 10771,6495 11143,6445 11072,5914 11301,6184 11501,6158 11652,5838 11723,6367 12095,6317 11939,5160 "/>
 </g>
</svg>
