<?xml version="1.0" encoding="UTF-8"?>
<!DOCTYPE svg PUBLIC "-//W3C//DTD SVG 1.1//EN" "http://www.w3.org/Graphics/SVG/1.1/DTD/svg11.dtd">
<!-- Creator: CorelDRAW 2017 -->
<svg xmlns="http://www.w3.org/2000/svg" xml:space="preserve" width="24.3717mm" height="24.1213mm" version="1.1" style="shape-rendering:geometricPrecision; text-rendering:geometricPrecision; image-rendering:optimizeQuality; fill-rule:evenodd; clip-rule:evenodd"
viewBox="0 0 59 58"
 xmlns:xlink="http://www.w3.org/1999/xlink">
 <defs>
  <style type="text/css">
   <![CDATA[
    .fil2 {fill:#050809}
    .fil3 {fill:#A1A2A2}
    .fil0 {fill:#E41910}
    .fil1 {fill:white}
   ]]>
  </style>
 </defs>
 <g id="Слой_x0020_1">
  <metadata id="CorelCorpID_0Corel-Layer"/>
  <g id="_719059056">
   <path class="fil0" d="M45 48c-4,6 -22,10 -32,-1 -10,-10 -7,-28 -1,-32l33 33zm-5 -13l-1 -1 -3 -3 -1 -1c-2,-1 -4,-3 -5,-5l-1 -1c-2,-1 -11,-11 -13,-12 9,-8 24,-7 32,2 8,8 9,23 1,32l-9 -9zm19 -1c3,-16 -8,-31 -25,-33 -16,-2 -31,9 -34,25 -6,39 52,47 58,9z"/>
   <path class="fil1" d="M18 42c-2,6 -9,1 -6,-6 2,-5 9,-1 6,6zm5 -2c-1,1 -3,1 -4,0 0,-1 -1,-1 2,-1 2,0 1,0 2,1zm1 2l0 -1c2,-1 1,0 2,0l0 2c2,1 2,1 3,0 2,-3 -1,-3 -3,-4 1,-2 0,0 2,-1 1,-1 1,-1 1,-2 -1,-1 -2,-1 -3,0 -2,1 1,2 -2,2 0,-5 9,-4 6,2 1,2 2,4 0,5 -2,1 -5,1 -6,-2zm20 5l-33 -33c-6,5 -9,22 1,32 11,10 28,7 32,1z"/>
   <path class="fil1" d="M28 23c1,-5 4,-8 9,-9l-2 -2c2,-3 6,-5 6,2 12,5 10,19 -1,21l9 9c8,-9 7,-23 -1,-32 -8,-8 -23,-10 -32,-2 1,2 11,12 13,12z"/>
   <path class="fil1" d="M36 21l0 2c-2,0 -1,0 -2,0 -1,-2 0,-2 2,-2zm6 2c-1,-1 -1,-1 0,-3l1 0c1,1 1,1 0,3l-2 0zm-6 2c0,-1 0,-1 1,-2 1,-2 0,-2 2,-2 1,1 0,1 -1,3 1,1 1,0 2,2 -1,1 -3,1 -4,0zm-7 -1c1,2 3,4 5,5 2,-1 11,-2 9,2 -2,0 -3,-3 -8,-1l3 3c5,0 9,-4 9,-8 1,-6 -3,-8 -8,-10 0,-2 1,-5 -3,-4 1,2 1,1 2,3 -2,1 -4,1 -6,3 -2,2 -3,4 -3,7z"/>
   <path class="fil2" d="M28 23l1 1c0,-3 1,-5 3,-7 2,-2 4,-2 6,-3 0,-2 0,-2 -2,-3 4,-2 3,1 3,4 5,2 9,4 8,10 0,5 -4,8 -9,8l1 1c11,-2 14,-16 1,-21 0,-7 -5,-5 -6,-2l2 2c-5,2 -8,4 -9,9z"/>
   <path class="fil2" d="M14 36c4,-2 4,6 2,7 -4,2 -4,-6 -2,-7zm4 7c3,-7 -4,-12 -6,-6 -3,7 4,12 6,6z"/>
   <path class="fil2" d="M26 41l-1 0 0 1c1,3 4,3 6,2 2,-2 2,-4 0,-5 3,-6 -6,-7 -6,-2 3,0 0,0 2,-2 1,-1 2,0 3,0 0,1 1,1 -1,2 -2,1 -1,-1 -2,1 2,1 4,1 3,4 -2,1 -1,1 -3,0l0 -2z"/>
   <path class="fil1" d="M14 36c-2,2 -2,10 2,7 2,-1 2,-10 -2,-7z"/>
   <path class="fil2" d="M34 29l1 1c5,-2 6,1 8,1 1,-4 -7,-3 -9,-2z"/>
   <path class="fil2" d="M36 26c1,1 3,1 4,0 0,-2 0,0 -2,-2 1,-1 1,-1 1,-3 -1,1 -1,1 -2,2 -1,1 -1,1 -1,2z"/>
   <path class="fil2" d="M42 24l2 0c1,-1 1,-1 0,-3l-1 0c-1,1 -1,1 0,3z"/>
   <path class="fil2" d="M33 23c1,1 0,1 2,0l0 -2c-2,0 -3,0 -2,2z"/>
   <path class="fil2" d="M19 40c1,1 3,1 4,0 0,-1 0,-1 -2,-1 -3,0 -2,1 -2,1z"/>
   <path class="fil3" d="M24 42l0 -1 1 0c-1,0 0,-1 -2,0l0 1z"/>
  </g>
 </g>
</svg>
