<?xml version="1.0" encoding="UTF-8"?>
<!DOCTYPE svg PUBLIC "-//W3C//DTD SVG 1.1//EN" "http://www.w3.org/Graphics/SVG/1.1/DTD/svg11.dtd">
<!-- Creator: CorelDRAW 2017 -->
<svg xmlns="http://www.w3.org/2000/svg" xml:space="preserve" width="105.052mm" height="102.211mm" version="1.1" style="shape-rendering:geometricPrecision; text-rendering:geometricPrecision; image-rendering:optimizeQuality; fill-rule:evenodd; clip-rule:evenodd"
viewBox="0 0 5376 5230"
 xmlns:xlink="http://www.w3.org/1999/xlink">
 <defs>
  <style type="text/css">
   <![CDATA[
    .fil0 {fill:#FEFEFE}
    .fil1 {fill:#E31E24}
    .fil2 {fill:#393185}
   ]]>
  </style>
 </defs>
 <g id="Содержимое_x0020_PowerClip">
  <metadata id="CorelCorpID_0Corel-Layer"/>
  <g id="_721967512">
   <path class="fil0" d="M4244 3270c6,30 10,27 19,22 8,-6 20,-14 117,-82 97,-68 280,-195 408,-286 129,-91 204,-147 276,-243 72,-96 140,-232 192,-387 53,-156 91,-332 108,-539 18,-208 15,-447 -11,-708 -26,-261 -77,-543 -106,-696 -29,-153 -36,-177 -127,-190 -91,-13 -264,-16 -492,-24 -228,-8 -509,-21 -829,-39 -319,-17 -677,-39 -908,-56 -231,-17 -337,-31 -392,-37 -55,-7 -60,-7 -24,35 36,41 114,124 220,246 106,122 239,285 352,441 113,156 206,305 289,437 83,132 156,246 235,387 79,141 165,309 223,439 58,130 88,224 125,302 36,79 79,142 117,228 38,85 70,192 101,294 30,103 58,201 75,282 18,81 25,145 31,176z"/>
   <path class="fil0" d="M4239 3251c-9,-54 -28,-145 -52,-244 -25,-99 -55,-206 -79,-283 -24,-77 -40,-124 -56,-164 -16,-40 -31,-73 -53,-117 -22,-44 -50,-98 -75,-150 -25,-52 -45,-103 -59,-138 -14,-35 -22,-54 -26,-65 -4,-10 -5,-11 -42,-4 -38,7 -113,23 -219,51 -106,27 -243,66 -373,115 -130,49 -252,107 -348,154 -97,47 -169,81 -238,118 -69,37 -136,77 -191,123 -55,46 -97,98 -141,166 -44,68 -89,152 -126,240 -36,88 -64,180 -78,236 -14,57 -14,78 -11,87 3,9 8,7 50,-16 42,-23 121,-65 186,-101 65,-35 115,-63 172,-85 57,-22 121,-38 188,-47 67,-9 136,-12 223,-11 87,1 191,7 302,24 111,17 230,47 341,73 112,26 218,49 319,69 101,20 198,37 263,46 65,9 99,9 116,1 17,-8 17,-24 7,-77z"/>
   <path class="fil0" d="M2074 3388c5,-56 12,-99 27,-153 15,-54 37,-118 69,-190 32,-72 74,-152 112,-214 38,-62 73,-105 88,-130 15,-25 11,-30 -17,-4 -29,26 -83,83 -136,134 -53,51 -106,95 -165,152 -59,58 -125,130 -179,200 -55,71 -99,140 -135,201 -36,61 -64,114 -87,176 -23,62 -42,132 -54,194 -12,61 -17,113 -19,187 -2,74 -1,170 3,255 4,85 10,160 38,276 28,117 79,275 121,387 42,112 76,177 113,226 36,49 75,83 140,108 65,25 155,43 248,36 92,-7 187,-37 268,-72 81,-35 149,-73 207,-111 58,-38 106,-75 130,-94 24,-19 24,-19 1,-24 -23,-5 -68,-16 -126,-43 -58,-27 -130,-71 -202,-139 -72,-68 -145,-160 -211,-275 -65,-115 -123,-254 -162,-361 -39,-108 -59,-185 -69,-268 -10,-83 -10,-172 -9,-251 1,-79 3,-146 8,-202z"/>
   <path class="fil0" d="M2125 4049c15,43 42,116 74,191 32,75 70,153 104,216 35,63 67,112 102,158 35,46 73,89 121,131 48,42 105,84 149,111 44,27 75,41 101,50 26,10 48,16 61,20 13,5 18,8 27,-2 8,-10 19,-32 26,-73 7,-41 9,-99 -11,-167 -20,-68 -63,-145 -111,-210 -48,-65 -101,-118 -160,-174 -59,-56 -125,-115 -180,-154 -56,-40 -103,-61 -146,-83 -43,-21 -84,-43 -113,-57 -30,-14 -49,-21 -56,-18 -8,4 -3,18 12,61z"/>
   <path class="fil0" d="M1625 4507c2,0 1,-5 -5,-34 -6,-29 -17,-83 -25,-142 -8,-59 -12,-123 -15,-180 -3,-57 -3,-106 -4,-130 0,-25 0,-25 -29,-19 -29,5 -86,16 -148,32 -62,16 -129,37 -205,60 -77,23 -163,47 -240,65 -77,19 -143,32 -205,50 -62,18 -118,41 -169,52 -50,11 -94,11 -150,9 -55,-2 -122,-6 -184,-26 -62,-20 -120,-56 -161,-97 -41,-41 -65,-88 -77,-111 -12,-23 -12,-23 1,20 13,43 38,130 66,214 28,85 60,167 96,246 36,79 76,155 110,208 34,53 62,84 87,109 26,25 50,43 88,45 38,2 91,-13 147,-36 55,-23 113,-55 174,-93 61,-38 125,-82 177,-115 52,-33 91,-56 133,-77 42,-21 87,-39 126,-54 38,-15 70,-25 107,-34 37,-9 80,-15 120,-16 40,-1 78,5 106,14 28,9 47,21 59,30 12,8 18,12 20,11z"/>
   <path class="fil1" d="M5204 190c-10,-14 -15,-15 -49,-20 -34,-5 -96,-14 -140,-20 -44,-5 -68,-6 -81,-7 -12,-1 -12,-1 -1,57 11,58 33,174 57,328 24,154 49,346 69,507 20,161 36,292 43,406 7,115 5,213 8,339 3,126 10,279 8,427 -2,148 -14,290 -20,368 -6,78 -6,92 14,59 20,-33 61,-112 94,-190 33,-78 58,-154 83,-279 26,-125 52,-300 65,-474 12,-174 11,-348 0,-526 -11,-178 -32,-360 -52,-512 -20,-152 -41,-273 -58,-347 -17,-74 -31,-101 -41,-115z"/>
   <path class="fil1" d="M3912 2290c5,-5 2,-10 -15,-45 -17,-35 -48,-99 -60,-129 -12,-31 -6,-28 -46,-19 -40,9 -127,25 -213,45 -85,20 -169,44 -260,75 -91,31 -191,70 -289,112 -98,42 -196,89 -296,142 -100,54 -203,115 -267,154 -64,39 -89,55 -113,86 -24,31 -48,75 -59,98 -12,22 -12,22 14,9 26,-14 77,-41 150,-78 72,-37 165,-85 256,-124 91,-39 179,-68 277,-97 98,-29 206,-59 304,-80 98,-21 186,-35 263,-50 77,-15 144,-32 196,-46 52,-15 90,-27 115,-35 25,-8 38,-12 42,-17z"/>
   <path class="fil2" d="M2874 30c-8,-5 -19,-6 -89,-10 -70,-4 -200,-12 -265,-15 -65,-4 -65,-4 -25,43 40,47 120,142 225,271 105,130 236,295 338,434 102,139 177,252 277,416 100,164 226,381 317,548 90,168 145,287 215,447 70,160 155,360 216,521 60,162 95,285 121,380 26,95 42,160 51,193 8,33 8,33 37,13 28,-20 85,-59 113,-79 28,-20 28,-20 17,-78 -11,-59 -34,-176 -99,-365 -64,-189 -170,-450 -281,-716 -111,-266 -226,-538 -338,-750 -112,-212 -220,-363 -321,-508 -101,-144 -194,-282 -274,-400 -80,-119 -148,-219 -184,-275 -36,-55 -42,-65 -50,-71z"/>
   <path class="fil2" d="M4252 3276c0,-28 -12,-71 -17,-92 -6,-22 -6,-22 -21,-22 -15,-1 -46,-2 -96,-10 -50,-8 -119,-23 -188,-39 -69,-17 -138,-35 -219,-55 -80,-19 -172,-39 -259,-53 -87,-14 -169,-22 -245,-27 -77,-5 -148,-6 -226,-6 -78,0 -162,1 -239,12 -77,11 -146,31 -213,55 -67,25 -131,54 -204,100 -74,46 -157,108 -201,147 -44,39 -48,54 -51,61 -2,7 -2,7 -2,13 1,5 2,16 2,22 1,5 1,5 1,5 0,0 0,0 18,-10 18,-10 53,-30 96,-53 43,-24 93,-51 149,-79 55,-28 115,-55 164,-74 49,-19 88,-29 132,-36 45,-8 95,-13 154,-15 59,-2 125,-2 186,-1 61,1 116,2 180,11 64,9 138,26 211,43 73,17 145,34 207,48 62,14 113,25 159,35 45,10 84,18 148,29 63,12 151,27 205,36 54,9 73,11 90,12 17,1 30,1 40,0 10,-1 15,-2 23,-9 8,-7 18,-19 17,-46z"/>
   <path class="fil1" d="M2333 2724c0,-1 -2,1 -36,31 -34,31 -99,90 -132,120 -33,30 -33,30 -44,53 -12,23 -35,70 -61,131 -26,61 -55,137 -73,215 -18,78 -24,158 -25,252 -1,95 3,204 19,326 16,122 45,256 82,365 37,109 82,191 136,277 54,86 117,175 176,245 59,70 114,120 162,157 48,37 88,59 122,78 34,19 62,33 76,40 14,7 15,6 16,6 0,0 0,0 18,-15 17,-15 51,-44 68,-59 17,-15 17,-15 4,-19 -13,-4 -40,-12 -80,-30 -41,-18 -95,-45 -147,-83 -52,-37 -103,-84 -146,-132 -44,-48 -81,-96 -114,-148 -34,-52 -64,-106 -93,-165 -29,-59 -57,-122 -82,-186 -25,-64 -45,-129 -62,-181 -16,-52 -28,-91 -35,-136 -8,-45 -12,-97 -14,-153 -2,-56 -2,-116 3,-183 5,-67 14,-141 25,-207 11,-66 24,-125 39,-176 16,-51 34,-95 54,-137 20,-42 40,-82 58,-115 18,-33 33,-59 46,-85 13,-26 25,-51 32,-65 7,-14 9,-18 9,-19z"/>
   <path class="fil2" d="M1641 3592c-9,32 -27,97 -39,173 -12,77 -19,165 -20,252 -1,87 3,172 10,247 7,76 18,142 32,207 14,65 32,130 45,176 13,46 22,72 41,124 19,51 49,128 72,181 23,53 39,82 60,111 21,29 47,58 83,82 36,25 84,46 117,58 33,12 53,16 62,18 10,2 10,2 -2,-7 -12,-9 -36,-28 -84,-78 -48,-50 -120,-131 -181,-264 -61,-133 -112,-318 -139,-453 -26,-135 -28,-219 -35,-302 -7,-83 -19,-165 -22,-258 -3,-93 3,-197 6,-249 3,-52 3,-52 -6,-20z"/>
   <path class="fil1" d="M2857 4917c-13,4 -34,0 -44,-2 -10,-2 -10,-2 -6,-24 4,-22 11,-66 5,-113 -6,-47 -26,-96 -58,-153 -32,-57 -76,-122 -128,-182 -52,-59 -111,-113 -167,-158 -57,-46 -111,-85 -150,-109 -39,-25 -63,-35 -87,-47 -24,-11 -49,-24 -62,-30 -12,-6 -12,-6 -12,-6 0,0 0,0 -6,-17 -6,-17 -17,-52 -23,-70 -6,-17 -6,-17 -6,-17 0,0 0,0 19,8 19,8 57,23 85,36 28,12 47,22 92,44 45,22 115,58 164,92 49,34 76,68 103,97 27,29 54,55 77,77 23,23 42,43 64,69 22,26 47,57 68,88 21,31 39,61 53,86 13,25 22,44 30,68 8,24 16,53 21,72 5,20 6,30 6,50 0,19 -1,47 -4,68 -2,20 -5,33 -10,45 -4,12 -10,24 -23,28z"/>
   <path class="fil2" d="M1617 4501c0,-2 -3,-7 -7,-21 -4,-14 -10,-38 -11,-50 -1,-12 3,-14 -2,-17 -4,-3 -16,-9 -30,-15 -15,-6 -32,-12 -49,-15 -16,-3 -31,-3 -53,-4 -21,-1 -49,-3 -75,0 -26,3 -52,11 -81,21 -30,10 -64,21 -104,37 -39,16 -83,38 -132,63 -49,25 -102,55 -148,82 -46,28 -84,54 -124,78 -40,24 -81,46 -120,68 -39,22 -75,43 -112,55 -37,12 -76,16 -115,17 -39,2 -77,1 -96,1 -19,0 -19,0 -9,9 10,9 29,27 48,40 20,13 39,20 53,23 13,3 21,3 37,2 17,-1 43,-3 71,-12 28,-9 57,-25 93,-45 37,-20 81,-45 129,-75 48,-29 100,-63 141,-89 40,-26 69,-44 103,-63 34,-19 74,-39 113,-56 39,-18 78,-33 116,-45 38,-12 76,-22 107,-27 31,-6 55,-8 85,-7 30,1 65,6 88,10 23,4 33,8 44,14 11,6 24,14 31,18 7,4 9,5 9,3z"/>
   <path class="fil1" d="M1575 4067c1,-1 1,-3 0,-15 -1,-12 -3,-33 -4,-44 -1,-11 -1,-11 -23,-7 -22,4 -67,13 -118,25 -51,12 -109,29 -163,44 -54,15 -103,30 -149,43 -46,13 -88,24 -132,35 -44,11 -89,22 -131,32 -42,10 -80,20 -121,32 -42,12 -87,27 -133,36 -46,10 -91,15 -143,15 -51,0 -107,-5 -158,-16 -50,-11 -95,-28 -125,-42 -30,-14 -45,-24 -65,-43 -20,-18 -44,-45 -63,-69 -19,-24 -33,-46 -39,-57 -7,-11 -7,-11 -3,4 4,15 13,45 20,67 7,22 11,37 14,48 3,11 5,18 6,21 1,3 1,3 8,11 7,7 22,22 49,39 27,17 65,38 97,53 32,15 59,24 92,33 33,8 72,16 113,18 41,2 84,-1 124,-8 40,-6 78,-16 127,-30 49,-14 110,-34 169,-50 58,-16 114,-30 171,-43 57,-13 116,-27 169,-41 53,-14 100,-29 144,-41 43,-12 83,-21 119,-30 36,-8 67,-16 90,-19 23,-3 38,-3 46,-3 9,0 11,0 12,-1z"/>
  </g>
 </g>
</svg>
